<svg xmlns="http://www.w3.org/2000/svg" version="1.1" xmlns:xlink="http://www.w3.org/1999/xlink" xmlns:svgjs="http://svgjs.com/svgjs" width="1440" height="560" preserveAspectRatio="none" viewBox="0 0 1440 560"><g mask="url(&quot;#SvgjsMask1009&quot;)" fill="none"><rect width="1440" height="560" x="0" y="0" fill="#0e2a47"></rect><path d="M355.14 324.04L374.83 324.04L374.83 343.73L355.14 343.73z" fill="#d3b714"></path><path d="M931.12 444.79 a10.9 10.9 0 1 0 21.8 0 a10.9 10.9 0 1 0 -21.8 0z" fill="#037b0b"></path><path d="M1305.5 529.75a26.52 26.52 0 1 0-52.8 4.95z" fill="#037b0b"></path><path d="M576.23 165.25 a11.51 11.51 0 1 0 23.02 0 a11.51 11.51 0 1 0 -23.02 0z" stroke="#e73635"></path><path d="M1396.06 319.82L1414.38 319.82L1414.38 338.14L1396.06 338.14z" stroke="#037b0b"></path><path d="M553.65 44.43L571.24 44.43L571.24 62.02L553.65 62.02z" stroke="#d3b714"></path><path d="M1326.34 201.61 a6.99 6.99 0 1 0 13.98 0 a6.99 6.99 0 1 0 -13.98 0z" stroke="#037b0b"></path><path d="M306.19 419.98a32.78 32.78 0 1 0 63.28-17.12z" fill="#037b0b"></path><path d="M506.89 270.73a1.59 1.59 0 1 0 3.12 0.58z" fill="#e73635"></path><path d="M620.36 491.8L653.01 491.8L653.01 525.91L620.36 525.91z" stroke="#e73635"></path><path d="M577.17 290.88 a12.14 12.14 0 1 0 24.28 0 a12.14 12.14 0 1 0 -24.28 0z" stroke="#e73635"></path><path d="M673.79 112.26L689.4 112.26L689.4 137.72L673.79 137.72z" fill="#e73635"></path><path d="M706.56 220.28L718.85 220.28L718.85 242.53L706.56 242.53z" stroke="#037b0b"></path><path d="M1319.8 35.26a43.5 43.5 0 1 0 3.37 86.94z" stroke="rgba(187, 29, 226, 1)"></path><path d="M653.71 270.58L690.12 270.58L690.12 292.66L653.71 292.66z" stroke="#e73635"></path><path d="M295.35 28.61L346.22 28.61L346.22 33.6L295.35 33.6z" fill="#037b0b"></path><path d="M205.62 98.9L257.59 98.9L257.59 150.87L205.62 150.87z" stroke="#d3b714"></path><path d="M1314.62 287.75a54.73 54.73 0 1 0 62.2-90.07z" stroke="#037b0b"></path><path d="M422.62 97.03 a39.85 39.85 0 1 0 79.7 0 a39.85 39.85 0 1 0 -79.7 0z" stroke="rgba(187, 29, 226, 1)"></path><path d="M949.59 502.89L954.97 502.89L954.97 508.27L949.59 508.27z" fill="#d3b714"></path><path d="M227.51 142.04L232.47 142.04L232.47 147.97L227.51 147.97z" stroke="#037b0b"></path><path d="M413.93 193.01 a43.45 43.45 0 1 0 86.9 0 a43.45 43.45 0 1 0 -86.9 0z" stroke="#d3b714"></path><path d="M472.22 452.04L511.25 452.04L511.25 491.07L472.22 491.07z" stroke="rgba(187, 29, 226, 1)"></path><path d="M9.73 2.89L52.13 2.89L52.13 45.29L9.73 45.29z" stroke="rgba(187, 29, 226, 1)"></path><path d="M426.11 314.6a21.68 21.68 0 1 0-43.36 0.78z" fill="rgba(187, 29, 226, 1)"></path><path d="M672.25 324.52L709.04 324.52L709.04 374.37L672.25 374.37z" fill="#037b0b"></path><path d="M1167.75 176.77a44.57 44.57 0 1 0-62.79-63.27z" fill="rgba(187, 29, 226, 1)"></path><path d="M408.45 226.72 a13.95 13.95 0 1 0 27.9 0 a13.95 13.95 0 1 0 -27.9 0z" fill="#e73635"></path><path d="M1236.21 47.63 a46.53 46.53 0 1 0 93.06 0 a46.53 46.53 0 1 0 -93.06 0z" fill="#d3b714"></path><path d="M765.14 288.11L797.61 288.11L797.61 320.58L765.14 320.58z" stroke="#037b0b"></path><path d="M239.17 288.77L275.56 288.77L275.56 325.16L239.17 325.16z" fill="rgba(187, 29, 226, 1)"></path><path d="M1334.24 440.01a33.98 33.98 0 1 0 58.42-34.73z" stroke="#037b0b"></path><path d="M889.6 220.93 a3.9 3.9 0 1 0 7.8 0 a3.9 3.9 0 1 0 -7.8 0z" stroke="#d3b714"></path></g><defs><mask id="SvgjsMask1009"><rect width="1440" height="560" fill="#ffffff"></rect></mask></defs></svg>